REM DIRINDEX 1\2,1\3,1\4
REM DIRNAME cjc151,folder01,folder02,folder03
TITLE ""
FILE "064 064_TOEFL_3900.mp3" MP3
  TRACK 01 AUDIO
    TITLE "2:cjc151_2764"
    INDEX 01 00:00:00
  TRACK 02 AUDIO
    TITLE "0:"
    INDEX 01 00:01:21
  TRACK 03 AUDIO
    TITLE "3:cjc151_2765"
    INDEX 01 00:03:00
  TRACK 04 AUDIO
    TITLE "0:"
    INDEX 01 00:06:49
  TRACK 05 AUDIO
    TITLE "2:cjc151_2766"
    INDEX 01 00:08:26
  TRACK 06 AUDIO
    TITLE "0:"
    INDEX 01 00:09:20
  TRACK 07 AUDIO
    TITLE "3:cjc151_2767"
    INDEX 01 00:10:74
  TRACK 08 AUDIO
    TITLE "0:"
    INDEX 01 00:14:60
  TRACK 09 AUDIO
    TITLE "2:cjc151_2768"
    INDEX 01 00:16:40
  TRACK 10 AUDIO
    TITLE "0:"
    INDEX 01 00:17:47
  TRACK 11 AUDIO
    TITLE "3:cjc151_2769"
    INDEX 01 00:19:24
  TRACK 12 AUDIO
    TITLE "0:"
    INDEX 01 00:22:29
  TRACK 13 AUDIO
    TITLE "2:cjc151_2770"
    INDEX 01 00:24:08
  TRACK 14 AUDIO
    TITLE "0:"
    INDEX 01 00:25:45
  TRACK 15 AUDIO
    TITLE "3:cjc151_2771"
    INDEX 01 00:27:22
  TRACK 16 AUDIO
    TITLE "0:"
    INDEX 01 00:30:59
  TRACK 17 AUDIO
    TITLE "2:cjc151_2772"
    INDEX 01 00:32:37
  TRACK 18 AUDIO
    TITLE "0:"
    INDEX 01 00:33:52
  TRACK 19 AUDIO
    TITLE "3:cjc151_2773"
    INDEX 01 00:35:27
  TRACK 20 AUDIO
    TITLE "0:"
    INDEX 01 00:38:08
  TRACK 21 AUDIO
    TITLE "2:cjc151_2774"
    INDEX 01 00:39:62
  TRACK 22 AUDIO
    TITLE "0:"
    INDEX 01 00:40:60
  TRACK 23 AUDIO
    TITLE "3:cjc151_2775"
    INDEX 01 00:42:35
  TRACK 24 AUDIO
    TITLE "0:"
    INDEX 01 00:46:27
  TRACK 25 AUDIO
    TITLE "2:cjc151_2776"
    INDEX 01 00:48:04
  TRACK 26 AUDIO
    TITLE "0:"
    INDEX 01 00:49:12
  TRACK 27 AUDIO
    TITLE "3:cjc151_2777"
    INDEX 01 00:50:66
  TRACK 28 AUDIO
    TITLE "0:"
    INDEX 01 00:53:64
  TRACK 29 AUDIO
    TITLE "2:cjc151_2778"
    INDEX 01 00:55:46
  TRACK 30 AUDIO
    TITLE "0:"
    INDEX 01 00:56:57
  TRACK 31 AUDIO
    TITLE "3:cjc151_2779"
    INDEX 01 00:58:34
  TRACK 32 AUDIO
    TITLE "0:"
    INDEX 01 01:02:40
  TRACK 33 AUDIO
    TITLE "2:cjc151_2780"
    INDEX 01 01:04:27
  TRACK 34 AUDIO
    TITLE "0:"
    INDEX 01 01:05:28
  TRACK 35 AUDIO
    TITLE "3:cjc151_2781"
    INDEX 01 01:07:08
  TRACK 36 AUDIO
    TITLE "0:"
    INDEX 01 01:10:47
  TRACK 37 AUDIO
    TITLE "2:cjc151_2782"
    INDEX 01 01:12:32
  TRACK 38 AUDIO
    TITLE "0:"
    INDEX 01 01:13:49
  TRACK 39 AUDIO
    TITLE "3:cjc151_2783"
    INDEX 01 01:15:27
  TRACK 40 AUDIO
    TITLE "0:"
    INDEX 01 01:18:72
  TRACK 41 AUDIO
    TITLE "2:cjc151_2784"
    INDEX 01 01:20:51
  TRACK 42 AUDIO
    TITLE "0:"
    INDEX 01 01:21:55
  TRACK 43 AUDIO
    TITLE "3:cjc151_2785"
    INDEX 01 01:23:48
  TRACK 44 AUDIO
    TITLE "0:"
    INDEX 01 01:27:44
  TRACK 45 AUDIO
    TITLE "2:cjc151_2786"
    INDEX 01 01:29:23
  TRACK 46 AUDIO
    TITLE "0:"
    INDEX 01 01:30:26
  TRACK 47 AUDIO
    TITLE "3:cjc151_2787"
    INDEX 01 01:32:06
  TRACK 48 AUDIO
    TITLE "0:"
    INDEX 01 01:35:69
  TRACK 49 AUDIO
    TITLE "2:cjc151_2788"
    INDEX 01 01:37:44
  TRACK 50 AUDIO
    TITLE "0:"
    INDEX 01 01:38:57
  TRACK 51 AUDIO
    TITLE "3:cjc151_2789"
    INDEX 01 01:40:36
  TRACK 52 AUDIO
    TITLE "0:"
    INDEX 01 01:44:11
  TRACK 53 AUDIO
    TITLE "2:cjc151_2790"
    INDEX 01 01:45:63
  TRACK 54 AUDIO
    TITLE "0:"
    INDEX 01 01:46:59
  TRACK 55 AUDIO
    TITLE "3:cjc151_2791"
    INDEX 01 01:48:32
  TRACK 56 AUDIO
    TITLE "0:"
    INDEX 01 01:51:70
  TRACK 57 AUDIO
    TITLE "2:cjc151_2792"
    INDEX 01 01:53:47
  TRACK 58 AUDIO
    TITLE "0:"
    INDEX 01 01:54:72
  TRACK 59 AUDIO
    TITLE "3:cjc151_2793"
    INDEX 01 01:56:55
  TRACK 60 AUDIO
    TITLE "0:"
    INDEX 01 02:00:12
  TRACK 61 AUDIO
    TITLE "2:cjc151_2794"
    INDEX 01 02:01:64
  TRACK 62 AUDIO
    TITLE "0:"
    INDEX 01 02:02:71
  TRACK 63 AUDIO
    TITLE "3:cjc151_2795"
    INDEX 01 02:04:53
  TRACK 64 AUDIO
    TITLE "0:"
    INDEX 01 02:08:56
  TRACK 65 AUDIO
    TITLE "2:cjc151_2796"
    INDEX 01 02:10:36
  TRACK 66 AUDIO
    TITLE "0:"
    INDEX 01 02:11:31
  TRACK 67 AUDIO
    TITLE "3:cjc151_2797"
    INDEX 01 02:13:07
  TRACK 68 AUDIO
    TITLE "0:"
    INDEX 01 02:17:06
  TRACK 69 AUDIO
    TITLE "2:cjc151_2798"
    INDEX 01 02:18:63
  TRACK 70 AUDIO
    TITLE "0:"
    INDEX 01 02:19:46
  TRACK 71 AUDIO
    TITLE "3:cjc151_2799"
    INDEX 01 02:21:26
  TRACK 72 AUDIO
    TITLE "0:"
    INDEX 01 02:25:04
  TRACK 73 AUDIO
    TITLE "2:cjc151_2800"
    INDEX 01 02:26:58
  TRACK 74 AUDIO
    TITLE "0:"
    INDEX 01 02:28:02
  TRACK 75 AUDIO
    TITLE "3:cjc151_2801"
    INDEX 01 02:29:62
  TRACK 76 AUDIO
    TITLE "0:"
    INDEX 01 02:34:11
  TRACK 77 AUDIO
    TITLE "2:cjc151_2802"
    INDEX 01 02:35:65
  TRACK 78 AUDIO
    TITLE "0:"
    INDEX 01 02:36:68
  TRACK 79 AUDIO
    TITLE "3:cjc151_2803"
    INDEX 01 02:38:48
  TRACK 80 AUDIO
    TITLE "0:"
    INDEX 01 02:42:51
  TRACK 81 AUDIO
    TITLE "2:cjc151_2804"
    INDEX 01 02:44:33
  TRACK 82 AUDIO
    TITLE "0:"
    INDEX 01 02:45:54
  TRACK 83 AUDIO
    TITLE "3:cjc151_2805"
    INDEX 01 02:47:29
  TRACK 84 AUDIO
    TITLE "0:"
    INDEX 01 02:51:27
  TRACK 85 AUDIO
    TITLE "2:cjc151_2806"
    INDEX 01 02:53:08
  TRACK 86 AUDIO
    TITLE "0:"
    INDEX 01 02:54:11
  TRACK 87 AUDIO
    TITLE "3:cjc151_2807"
    INDEX 01 02:55:68
  TRACK 88 AUDIO
    TITLE "0:"
    INDEX 01 02:59:26
